<svg xmlns="http://www.w3.org/2000/svg" viewBox="0 0 736.47 218.69"><defs><style>.cls-1{fill:#fff;}</style></defs><g id="Livello_2" data-name="Livello 2"><g id="text"><path class="cls-1" d="M116.93,102.42l21.08-48a2,2,0,0,0,.17-.79V49.45a2,2,0,0,0-2-2H124.93a4.85,4.85,0,0,1-1-.1l-5.73-1.21-2,.37-2.51,5a.49.49,0,0,0-.06.13l-10,24.09a2,2,0,0,1-2.78.95l-7.12-4.09a2.19,2.19,0,0,1-.39-.29L79.17,58.54,68.69,47.36a9.9,9.9,0,0,0-2.55-.72l-8.47-1a12.27,12.27,0,0,0-4.62,1.55l-9,9.3a2.27,2.27,0,0,0-.26.35L36.25,69.7a1.55,1.55,0,0,0-.14.29L17.55,118.41,4.43,158.69a2.5,2.5,0,0,0-.07.26L.69,179.4a11.39,11.39,0,0,0-.19,2.1V195a5.64,5.64,0,0,0,.24,1.63l3.06,10a3.67,3.67,0,0,0,1.08,1.68l4.05,3.57a2,2,0,0,0,1.7.45l14.19-3a1.88,1.88,0,0,0,1-.52l45.49-48.62c1.9-2,5.79-7.1,6.59-8.1,1.32-1.62,1.45-1,1,1.06L68.51,185.41l-.08.76v3.74a2.64,2.64,0,0,1-.36,1.34L63,200a2,2,0,0,0-.16,1.63l1.7,4.84a1.92,1.92,0,0,0,1.15,1.18l5.47,3.48,5.79.75a2,2,0,0,0,1.83-.25l13.56-9.87,15.32-11.07a.91.91,0,0,1,.16-.11l15.31-8.88a2,2,0,0,0,1-1.69v-4.18a2,2,0,0,0-.71-1.51l-5-4.16a1.7,1.7,0,0,1-.34-.37l-3.74-5.23a2,2,0,0,0-2.56-.57L97.4,172.14c-1.46.84,2-7.73,2.38-9.38l5.3-25.11.06-.22,11.73-34.84A1.15,1.15,0,0,1,116.93,102.42ZM19.18,179.58a4.07,4.07,0,0,1,.11-1.05l4.53-17.89c0-.07,0,.06,0,0l9.3-32.32s0,.05,0,0l12.49-33L53.37,75c.89-2.34,2.51-6.51,4.91-5.79L64.92,73c1.4.42,4.38,2.54,5.6,3.36l8.88,8.84,2,1.79L91.87,99.06a2,2,0,0,1,.27,2.48l-6.57,10-.2.27-60.5,69.23a2.29,2.29,0,0,1-.23.21l-.37.29c-2.87,1.41-5.09,2.84-5,.69Z"/><path class="cls-1" d="M10.23,212.87a2.48,2.48,0,0,1-1.63-.61l-4-3.58a4.19,4.19,0,0,1-1.23-1.91l-3-10A6,6,0,0,1,0,195V181.5a12.39,12.39,0,0,1,.2-2.19l3.67-20.45a3,3,0,0,1,.08-.32l13.13-40.28L35.64,69.81a2.53,2.53,0,0,1,.18-.37L43.34,56.6a2.67,2.67,0,0,1,.32-.43l9-9.3a11.28,11.28,0,0,1,5.06-1.7l8.61,1c1.94.38,2.46.59,2.69.84L79.53,58.19,93.73,72a1.23,1.23,0,0,0,.29.22l7.12,4.09a1.44,1.44,0,0,0,2.07-.71l10-24.09c0-.06,0-.11.08-.16l2.62-5.25,2.34-.43L124,46.9a4.58,4.58,0,0,0,.9.09h11.29a2.46,2.46,0,0,1,2.46,2.46v4.18a2.45,2.45,0,0,1-.21,1l-21.08,48a1.12,1.12,0,0,0,0,.13l-11.72,34.84a1.09,1.09,0,0,0-.05.17l-5.3,25.11c-.11.53-.5,1.63-1,3a49,49,0,0,0-1.72,5.57l13.94-7.91a2.45,2.45,0,0,1,3.21.71l3.74,5.23a1.39,1.39,0,0,0,.26.28l5,4.16a2.44,2.44,0,0,1,.89,1.89V180a2.46,2.46,0,0,1-1.23,2.12L108.06,191l-.12.08L79.07,212a2.46,2.46,0,0,1-2.24.34l-6-.82-5.43-3.45a2.44,2.44,0,0,1-1.39-1.46l-1.7-4.84a2.42,2.42,0,0,1,.2-2.05L67.64,191a2.2,2.2,0,0,0,.29-1.09v-3.74l.1-.91L78.44,153c.08-.43.13-.74.16-1l-.33.39-.87,1.11c-1.48,1.89-4.23,5.4-5.74,7l-45.5,48.61a2.37,2.37,0,0,1-1.24.67l-14.19,3A2.07,2.07,0,0,1,10.23,212.87ZM57.53,46.15a13.12,13.12,0,0,0-4.11,1.41l-9,9.3a1.14,1.14,0,0,0-.18.25L36.68,70a1.51,1.51,0,0,0-.11.22L18,118.59,4.9,158.85c0,.06,0,.12-.05.19L1.18,179.49a11.21,11.21,0,0,0-.18,2V195a5,5,0,0,0,.22,1.48l3.06,10a3.11,3.11,0,0,0,.93,1.45l4.06,3.58a1.44,1.44,0,0,0,1.26.33l14.19-3a1.53,1.53,0,0,0,.73-.39l45.48-48.61c1.47-1.58,4.21-5.07,5.68-6.95.4-.51.71-.91.89-1.12.57-.71,1.13-1.34,1.7-1.07s.51,1,.21,2.53L69,185.51l-.07.71v3.69a3.16,3.16,0,0,1-.43,1.59l-5.08,8.75a1.49,1.49,0,0,0-.12,1.22l1.7,4.84a1.48,1.48,0,0,0,.85.88l.1,0,5.37,3.42,5.8.76a1.45,1.45,0,0,0,1.36-.19l28.87-20.94.21-.13,15.31-8.88a1.47,1.47,0,0,0,.73-1.26v-4.18a1.43,1.43,0,0,0-.53-1.12l-5-4.17a2.29,2.29,0,0,1-.43-.45l-3.74-5.24a1.44,1.44,0,0,0-1.9-.42l-14.36,8.15a.69.69,0,0,1-.83,0c-.58-.48-.31-1.72,1.52-7,.44-1.25.85-2.44,1-2.91l5.3-25.11a2.76,2.76,0,0,1,.08-.27l11.72-34.85.08-.21h0l21.09-48a1.52,1.52,0,0,0,.12-.59V49.45A1.46,1.46,0,0,0,136.22,48H124.93a5.78,5.78,0,0,1-1.1-.11l-5.63-1.19-1.66.3-2.44,4.9-10,24.1a2.47,2.47,0,0,1-3.5,1.19l-7.12-4.09a2.52,2.52,0,0,1-.49-.37L78.82,58.89,68.33,47.71a8.79,8.79,0,0,0-2.15-.55l-.14,0-8.43-1ZM20,183.88a1.23,1.23,0,0,1-.69-.19,1.49,1.49,0,0,1-.55-1.43l-.1-2.66a4,4,0,0,1,.12-1.2l4.64-18.35h0l9-31.4h0l.32-.94h0l12.32-32.6L52.9,74.78c.93-2.42,2.65-7,5.52-6.08l.11,0,6.59,3.81a28.31,28.31,0,0,1,5.15,3l.53.36,9,8.9,2,1.78,10.49,12.1a2.46,2.46,0,0,1,.31,3.08l-6.79,10.35L25.24,181.42a2.38,2.38,0,0,1-.29.27l-.46.35-1.07.53A9.38,9.38,0,0,1,20,183.88Zm-.35-4.32.11,2.7c0,.42.05.57.09.59.34.22,1.93-.58,3.09-1.17l1-.52.33-.26a1.22,1.22,0,0,0,.17-.15L85,111.53l.18-.25,6.55-10a1.44,1.44,0,0,0-.2-1.84L81.05,87.33l-2-1.75-8.91-8.86-.46-.3a27.72,27.72,0,0,0-4.92-2.93l-.11,0-6.59-3.8c-1.95-.51-3.5,3.54-4.25,5.5L46.07,95.47l-12.48,33-9.28,32.27-.11.48h0l-4.41,17.43a3.1,3.1,0,0,0-.1.91Z"/><polygon class="cls-1" points="149.74 87.16 151.37 80.18 182.78 51.46 194.01 51.46 204.21 51.46 204.21 66.02 198.49 90.94 211.55 75.79 226.04 57.65 231.34 52.66 243.38 51.46 249.91 63.83 255.21 83.77 256.43 87.35 248.27 89.35 235.83 92.34 228.89 80.38 215.84 98.52 186.1 144.72 180.38 173.78 172 196.88 158.27 212.53 137.31 208.88 137.31 202.84 147.98 184.21 168.18 138.01 179.24 84.73 180 80.64 169.21 89.62 167.68 91 156.56 89.25 149.74 87.16"/><path class="cls-1" d="M158.27,213h-.08l-21-3.65a.49.49,0,0,1-.41-.49v-6a.54.54,0,0,1,.06-.25L147.55,184l20.15-46.1,11.05-53.23.51-2.72L169.53,90,168,91.37a.5.5,0,0,1-.41.12l-11.12-1.75-6.89-2.11a.5.5,0,0,1-.34-.59l1.63-7a.5.5,0,0,1,.15-.25l31.42-28.72a.51.51,0,0,1,.34-.13h21.42a.51.51,0,0,1,.5.5V66a.43.43,0,0,1,0,.11l-5.26,23,11.74-13.63,14.48-18.13,5.35-5a.47.47,0,0,1,.29-.14l12-1.19a.48.48,0,0,1,.49.26l6.53,12.36a.49.49,0,0,1,0,.11l5.3,19.94,1.22,3.55a.5.5,0,0,1,0,.4.45.45,0,0,1-.32.25l-20.6,5a.5.5,0,0,1-.55-.24l-6.55-11.3L216.24,98.81l-29.67,46.1-5.7,29-8.4,23.17a.86.86,0,0,1-.1.16l-13.72,15.65A.5.5,0,0,1,158.27,213Zm-20.46-4.57L158.08,212l13.48-15.37,8.35-23,5.7-29a.51.51,0,0,1,.07-.17l29.74-46.2,13.07-18.17a.51.51,0,0,1,.43-.2.47.47,0,0,1,.4.24l6.75,11.65L255.78,87l-1-3.07L249.44,64l-6.35-12-11.53,1.14L226.38,58,211.94,76.1,198.87,91.27a.51.51,0,0,1-.6.12.5.5,0,0,1-.26-.56L203.71,66V52H183L151.82,80.44l-1.49,6.37,6.38,2,10.81,1.7,1.36-1.22,10.8-9a.52.52,0,0,1,.57,0,.5.5,0,0,1,.24.53l-.76,4.1-11.06,53.28a.17.17,0,0,1,0,.1l-20.2,46.2L137.81,203Z"/><path class="cls-1" d="M735.38,50.25l-5-2.37a1,1,0,0,0-.42-.09h-8.4a.75.75,0,0,1-.26,0l-5.1-1.41a1,1,0,0,0-.6,0l-3.69,1.3a1,1,0,0,0-.55.47l-4.78,8.78a1.11,1.11,0,0,0-.07.16l-8.09,24.17a1,1,0,0,1-1.7.38L685.42,69.3,678,60.46l-.07-.08-9.13-8c-.38-.37-1.07-.92-1.6-.83l-7.62.53a7.16,7.16,0,0,0-1.69.51l-3,1.32a8.05,8.05,0,0,0-3.17,2.53L638.13,74.67l-9.87,13.66a8.61,8.61,0,0,0-1,1.86l-3.88,9.56-.13.36-7.46,22.15a13.83,13.83,0,0,0-.68,3.42l-1.4,21.06,0,1.1v21.47a10.68,10.68,0,0,0,.19,2l5.34,27.43c0,.14,1.48,2.77,2.33,4.28a6.19,6.19,0,0,0,1.49,1.73l5.94,4.76a1,1,0,0,0,.58.31L641,211.7a4.21,4.21,0,0,0,2.84-.55l12.86-7.66a5.25,5.25,0,0,0,1.7-1.65l12.35-19.12s.05-.09.07-.14l12.79-28.34a1,1,0,0,1,1.93.56l-1.7,14.28L682,188.91s0,.08,0,.12l-1.52,7.41a1.49,1.49,0,0,0,0,.21v4.77a1,1,0,0,1-.06.35l-2,5.42a1.1,1.1,0,0,0,0,.8l1.84,3.95a4.62,4.62,0,0,0,2.48,2.36l4.15,1.66a6.1,6.1,0,0,0,1.5.37l8.93,1a1,1,0,0,0,.84-.3l12.39-12.9,16.71-16.36a.81.81,0,0,0,.12-.14l2.24-3.12a1.1,1.1,0,0,0,.19-.61v-5.66a1,1,0,0,0-.56-.92l-11.22-5.71a2.67,2.67,0,0,0-1.36-.28l-3.22.19a3.47,3.47,0,0,0-2.28,1.07l-4.44,4.7a1,1,0,0,1-1.74-.83l1.49-13.07,4.07-29.33V134l6.19-31.79a.74.74,0,0,1,0-.14l8.35-24.84,0-.07L732,60.42l3.86-8.82A1,1,0,0,0,735.38,50.25ZM692.5,101.62l-12,23.46a.41.41,0,0,1-.05.09l-12.48,21.34a.47.47,0,0,0-.05.1l-13.2,26-.05.09-10.32,17.9a1.84,1.84,0,0,1-.58.63l-3.93,2.66c-2,.64-2.63.51-3.2-.43L635,189.73a1.89,1.89,0,0,1-.24-.65l-3.32-18.43a2,2,0,0,1,0-.34V138.13a1.88,1.88,0,0,1,.07-.53l6.63-23.12a1.63,1.63,0,0,1,.18-.43L650,93.82l.09-.14,10.51-14.89a3.92,3.92,0,0,1,4.52-1.44l7.18,2.55a1.92,1.92,0,0,1,.84.59L680,89a2.72,2.72,0,0,0,.24.24L692,99.29A1.93,1.93,0,0,1,692.5,101.62Z"/><path class="cls-1" d="M697.47,217.84h-.17l-8.93-1a6.1,6.1,0,0,1-1.63-.41l-4.15-1.65a5.13,5.13,0,0,1-2.75-2.61l-1.84-4a1.56,1.56,0,0,1,0-1.18l2-5.42a.57.57,0,0,0,0-.18v-4.77a1.71,1.71,0,0,1,0-.31l1.52-7.41,1.87-19.9,1.7-14.29a.5.5,0,0,0-.38-.58.47.47,0,0,0-.59.29l-12.79,28.34a2.25,2.25,0,0,1-.12.21l-12.34,19.11a5.78,5.78,0,0,1-1.87,1.81l-12.85,7.66a4.71,4.71,0,0,1-3.17.61l-11.5-1.83a1.47,1.47,0,0,1-.87-.47l-5.9-4.71a6.43,6.43,0,0,1-1.6-1.88s-2.33-4.1-2.39-4.42l-5.34-27.43a11.75,11.75,0,0,1-.2-2.14l0-22.58,1.41-21.08a13.88,13.88,0,0,1,.7-3.55l7.59-22.53L626.77,90a8.93,8.93,0,0,1,1.09-2l9.87-13.66,13.63-18.22a8.58,8.58,0,0,1,3.37-2.69l3-1.32a7.62,7.62,0,0,1,1.8-.54l7.68-.54a2.74,2.74,0,0,1,2,1l9.1,8,.13.13L685.8,69l11.26,12.3a.49.49,0,0,0,.47.15.53.53,0,0,0,.39-.34L706,56.92a1.45,1.45,0,0,1,.11-.25l4.78-8.77a1.46,1.46,0,0,1,.82-.71l3.69-1.31a1.53,1.53,0,0,1,.9,0l5.1,1.42.13,0h8.4a1.57,1.57,0,0,1,.64.14l5,2.36a1.54,1.54,0,0,1,.75,2l-3.87,8.82-6.81,16.73-8.37,24.88-6.21,31.87L707,163.46l-1.48,13.06a.51.51,0,0,0,.3.54.48.48,0,0,0,.58-.11l4.44-4.7a3.9,3.9,0,0,1,2.61-1.23l3.22-.19a3.18,3.18,0,0,1,1.61.34l11.23,5.7a1.53,1.53,0,0,1,.83,1.37v5.66a1.53,1.53,0,0,1-.29.9l-2.23,3.13-.18.2-16.71,16.35-12.38,12.9A1.5,1.5,0,0,1,697.47,217.84Zm-12.93-64.7a1.52,1.52,0,0,1,.42.06,1.49,1.49,0,0,1,1.1,1.66l-1.7,14.28L682.5,189a.88.88,0,0,1,0,.16L681,196.55a.34.34,0,0,0,0,.1v4.77a1.54,1.54,0,0,1-.09.52l-2,5.42a.55.55,0,0,0,0,.42l1.83,3.95a4.13,4.13,0,0,0,2.22,2.11l4.15,1.65a5,5,0,0,0,1.37.34l8.93,1a.51.51,0,0,0,.42-.16l12.39-12.9,16.72-16.37,2.3-3.2a.5.5,0,0,0,.1-.31v-5.66a.54.54,0,0,0-.29-.48l-11.22-5.7a2.1,2.1,0,0,0-1.1-.23l-3.22.19a2.93,2.93,0,0,0-1.94.91l-4.44,4.71a1.48,1.48,0,0,1-1.73.33,1.5,1.5,0,0,1-.87-1.57L706,163.34,710.08,134l6.21-31.88a1.05,1.05,0,0,1,.05-.19l8.36-24.85,6.85-16.84,3.87-8.83a.54.54,0,0,0-.25-.7h0l-5-2.36a.5.5,0,0,0-.21-.05h-8.4a1.39,1.39,0,0,1-.4-.06L716,46.82a.44.44,0,0,0-.3,0l-3.68,1.3a.51.51,0,0,0-.28.24L707,57.15,698.87,81.4a1.52,1.52,0,0,1-1.13,1,1.5,1.5,0,0,1-1.42-.46L685.05,69.64l-7.44-8.86-9.14-8c-.54-.52-1-.75-1.18-.72l-7.68.54a6.16,6.16,0,0,0-1.52.47l-3,1.32a7.62,7.62,0,0,0-3,2.37L638.53,75l-9.86,13.65a8.31,8.31,0,0,0-1,1.75l-4,9.92-7.44,22.13a13.16,13.16,0,0,0-.66,3.29l-1.43,22.15v21.45a9.84,9.84,0,0,0,.19,1.95l5.33,27.43c.08.17,1.33,2.44,2.28,4.12a5.61,5.61,0,0,0,1.36,1.59l5.95,4.76a.59.59,0,0,0,.34.21l11.5,1.84a3.78,3.78,0,0,0,2.5-.49l12.86-7.66a4.7,4.7,0,0,0,1.54-1.5l12.35-19.11L683.18,154A1.49,1.49,0,0,1,684.54,153.14Zm-46.61,41.64a1.87,1.87,0,0,1-1.75-1.07l-1.67-3.78a2,2,0,0,1-.28-.76l-3.33-18.43a3.22,3.22,0,0,1,0-.43V138.13a2.52,2.52,0,0,1,.09-.67l6.63-23.12a2.14,2.14,0,0,1,.23-.54l11.71-20.23a.94.94,0,0,1,.12-.18l10.5-14.89a4.44,4.44,0,0,1,5.1-1.62l7.17,2.55a2.35,2.35,0,0,1,1.06.75l6.94,8.46a1.45,1.45,0,0,0,.17.18l11.77,10.09a2.4,2.4,0,0,1,.58,2.93h0l-12.09,23.59-12.48,21.33L655.07,173l-10.31,17.9a2.44,2.44,0,0,1-.74.79l-3.93,2.66a.38.38,0,0,1-.13.06A7.24,7.24,0,0,1,637.93,194.78ZM663.78,77.62A3.43,3.43,0,0,0,661,79.08L650.46,94l-.07.1L638.68,114.3a1.53,1.53,0,0,0-.13.32l-6.63,23.12a1.31,1.31,0,0,0,0,.39v32.18a1.06,1.06,0,0,0,0,.25L635.21,189a1.43,1.43,0,0,0,.18.47l1.68,3.78c.31.52.49.81,2.52.18l3.87-2.62a1.36,1.36,0,0,0,.43-.46l10.32-17.9,13.23-26.07.07-.12L680,124.92l12.06-23.53a1.41,1.41,0,0,0-.34-1.72L679.94,89.58a2.91,2.91,0,0,1-.3-.31l-6.93-8.46a1.44,1.44,0,0,0-.62-.44l-7.17-2.55A3.51,3.51,0,0,0,663.78,77.62Zm28.72,24h0Z"/><path class="cls-1" d="M534.49,85.6l.1,5.76L544,94.21l8.07.92c1.1.13,2.25,1.94,3.13,1.25L566.57,84.1l-9.85,35.13-11.08,31.44-11.43,31.84.73,18.56-.28,6.86,4.52,3.07,9.23,1.53,12.32-6,14.9-5.8,8.83-9.92-6.84-4.7-8.27-4-8.74,2.51-5,2.35,18.93-54.43L591.5,73.2l-.32-17.51-12.75-4-4.11.07L562.9,63.2Z"/><path class="cls-1" d="M548.41,213h-.08l-9.23-1.53a.5.5,0,0,1-.2-.08l-4.52-3.07a.49.49,0,0,1-.21-.43l.27-6.86-.73-18.52a.68.68,0,0,1,0-.19l11.43-31.84,11.08-31.43L565.53,86,555.6,96.72c-.87.69-1.72.06-2.41-.45a3.13,3.13,0,0,0-1.15-.64L544,94.71l-9.52-2.87a.49.49,0,0,1-.36-.47l-.1-5.76a.5.5,0,0,1,.19-.4l28.41-22.4L574,51.43a.56.56,0,0,1,.35-.15l4.1-.07a.47.47,0,0,1,.16,0l12.75,4a.5.5,0,0,1,.36.47L592,73.19a.59.59,0,0,1,0,.14l-16.92,59.34L556.52,186l3.88-1.84,8.81-2.54a.53.53,0,0,1,.35,0l8.28,4,6.91,4.74a.5.5,0,0,1,.09.74L576,201a.41.41,0,0,1-.19.13L560.91,207l-12.28,6A.59.59,0,0,1,548.41,213Zm-9-2.51,9,1.49,12.18-6,14.82-5.77,8.38-9.41-6.37-4.38-8-3.83-8.55,2.45-4.88,2.32a.52.52,0,0,1-.55-.08.5.5,0,0,1-.14-.54l18.93-54.43L591,73.13l-.31-17.07-12.34-3.85-3.81.07L563.25,63.55,535,85.84l.09,5.15,9.09,2.75,8,.9a3.57,3.57,0,0,1,1.63.83c.55.4.94.67,1.14.52L566.2,83.76a.5.5,0,0,1,.61-.1.49.49,0,0,1,.24.58l-9.84,35.13-11.1,31.46-11.4,31.76.73,18.46-.26,6.62Z"/><path class="cls-1" d="M369.85,183.46a2.8,2.8,0,0,0-.88-.27l-6-.89a4,4,0,0,1-.83-.21l-8.23-3L348.72,183l-8.93,5.88,6.64-35.43,5.4-29.11,4.66-26.78,8.1-32.22,6.65-19-9.89.65a2.91,2.91,0,0,1-.59,0l-10.1-.65-8.92,20.18-5.05,10.87-1.24,2.41-2-1.42-5.86-8.67-5.7-7.52-6.94-6.55-6.84-6a2.85,2.85,0,0,0-2-.69l-5.6.32-6.27,1.13a2.13,2.13,0,0,0-1.36.88l-4.09,5.87L278,72.75c-.16.29.1-.31,0,0l-10.36,31.36L257.75,136l-7.65,30.25a3.88,3.88,0,0,0-.13.83l-1.35,23.55a4,4,0,0,0,.33,1.84l5.3,11.91a2.57,2.57,0,0,0,1.26,1.28l8.93,5.61a7.63,7.63,0,0,0,2.42.35l9.34-.08a2.34,2.34,0,0,0,1.25-.56l14.38-13a3.6,3.6,0,0,0,.67-.79l9.34-15L313.49,161l10.63-18.73,7.09-11.9-8.36,55.18L319.06,200l-2.69,6.93a5.37,5.37,0,0,0-.35,1.9V212l9.62,3.12,5.06,3,3.29-1.93,20.25-12.5,17-11.9,4.3-5.57ZM327.71,98.2l-.85,4.36-18,31.3L284.5,170.55l-8.29,15.13-7.89,7.57-1.3-.17a3.42,3.42,0,0,1-1.1-2.9l1.17-11.55L271,155.21l8.82-36.74,11.67-31.06L302.3,67.67c.15-.33,3.76-.16,4,.08l5,3.1,9.95,14.72,5.69,8.8A5.23,5.23,0,0,1,327.71,98.2Z"/><path class="cls-1" d="M330.7,218.69a.59.59,0,0,1-.26-.07l-5-3-9.57-3.11a.5.5,0,0,1-.34-.47v-3.24a5.73,5.73,0,0,1,.39-2.08l2.68-6.93,3.78-14.38,8-52.6-5.78,9.7-10.63,18.72-11.64,21.26-9.35,15a4.18,4.18,0,0,1-.77.91l-14.38,13a2.71,2.71,0,0,1-1.52.68l-9.39.09a8,8,0,0,1-2.64-.4l-9-5.64a3,3,0,0,1-1.46-1.5l-5.29-11.91a4.46,4.46,0,0,1-.38-2.07l1.35-23.55a5,5,0,0,1,.14-.93l7.65-30.24,9.9-31.94,10.31-31.21a.46.46,0,0,1,0-.2.53.53,0,0,1,.18-.24L292.44,51a2.61,2.61,0,0,1,1.68-1.08l6.27-1.13,5.66-.33a3.3,3.3,0,0,1,2.37.82l6.84,6,6.95,6.56L328,69.37,333.79,78l1.48,1,1-1.9,5-10.85,8.93-20.17a.48.48,0,0,1,.49-.3l10.09.65a2.35,2.35,0,0,0,.53,0l9.88-.65a.45.45,0,0,1,.43.2.48.48,0,0,1,.08.46l-6.65,19L357,97.66l-4.65,26.75-5.4,29.11L340.5,187.8l7.95-5.24,5.21-3.91a.52.52,0,0,1,.48-.07l8.23,3a3.47,3.47,0,0,0,.72.19l6,.88a3.11,3.11,0,0,1,1,.33l5.66,2.82a.5.5,0,0,1,.26.34.52.52,0,0,1-.09.42l-4.3,5.57a.52.52,0,0,1-.11.1l-17,11.9-20.28,12.52-3.3,1.93A.55.55,0,0,1,330.7,218.69Zm-14.18-7,9.27,3,.1.05,4.81,2.89,3-1.78L354,203.33l16.87-11.84,3.89-5-5.12-2.56a2.59,2.59,0,0,0-.73-.23l-5.95-.88a5,5,0,0,1-.92-.24l-8-2.95-5,3.77-8.95,5.9a.5.5,0,0,1-.55,0,.51.51,0,0,1-.22-.51l6.64-35.43,5.4-29.11L356,97.45,364.1,65.2l6.42-18.35-9.14.6a3.64,3.64,0,0,1-.66,0L351,46.82l-8.79,19.87-5.05,10.87L335.9,80a.51.51,0,0,1-.33.26.5.5,0,0,1-.41-.07l-2-1.42a.49.49,0,0,1-.12-.13L327.16,70l-5.69-7.5L314.59,56l-6.83-6a2.36,2.36,0,0,0-1.65-.57l-5.6.32-6.21,1.12a1.66,1.66,0,0,0-1,.67l-4.09,5.87L278.45,73l-10.34,31.28-9.89,31.91-7.64,30.22a3.67,3.67,0,0,0-.11.74l-1.35,23.54a3.42,3.42,0,0,0,.29,1.61l5.29,11.91a2,2,0,0,0,1,1l9,5.64a8.21,8.21,0,0,0,2.11.29l9.39-.09a1.81,1.81,0,0,0,.92-.43l14.37-13a3,3,0,0,0,.59-.69l9.34-15,11.63-21.24L323.68,142l7.1-11.91a.5.5,0,0,1,.59-.21.49.49,0,0,1,.33.54l-8.35,55.19-3.81,14.48-2.7,7a4.81,4.81,0,0,0-.32,1.72Zm-48.2-17.91h-.07l-1.3-.18a.5.5,0,0,1-.23-.09,3.89,3.89,0,0,1-1.3-3.35l1.18-11.55,3.94-23.45,8.82-36.77,11.69-31.13,10.81-19.8a.72.72,0,0,1,.55-.35c.73-.17,3.78-.11,4.25.28l4.92,3.07a.4.4,0,0,1,.15.14l9.95,14.72,5.7,8.81a5.71,5.71,0,0,1,.82,4.2h0l-.85,4.36a.88.88,0,0,1-.05.15l-18,31.3-24.34,36.71-8.27,15.1a.47.47,0,0,1-.09.12l-7.89,7.57A.52.52,0,0,1,268.32,193.75Zm-1.1-1.15.93.12,7.66-7.35,8.26-15.06,24.34-36.72,18-31.2.83-4.28a4.71,4.71,0,0,0-.68-3.47l-5.69-8.8L311,71.22l-4.88-3a14,14,0,0,0-3.42-.13L292,87.64l-11.64,31-8.8,36.68-3.93,23.39-1.17,11.51A3.06,3.06,0,0,0,267.22,192.6Zm60.49-94.4h0Zm-25-30.32,0,.05Z"/><path class="cls-1" d="M291.28,8v2a5.09,5.09,0,0,0,.37,1.89L293.73,17l1.71,4.65,1,5.74,5.25,4.89h16.26l.61-3.43-3.26-12.09L311.45,8l-2.56-4L303,4.74,294.22,6l-2.94.73Z"/><path class="cls-1" d="M317.93,32.74H301.67a.55.55,0,0,1-.34-.13l-5.25-4.89a.53.53,0,0,1-.16-.28l-1-5.75-1.69-4.56-2.07-5.06a5.47,5.47,0,0,1-.41-2.08V6.69a.49.49,0,0,1,.38-.48l2.94-.74L303,4.24l5.87-.73a.5.5,0,0,1,.49.22l2.57,4,3.86,8.74L319,28.68a.55.55,0,0,1,0,.22l-.61,3.43A.5.5,0,0,1,317.93,32.74Zm-16.06-1h15.64l.52-2.9-3.23-12L311,8.24l-2.36-3.7-5.56.69-8.79,1.22-2.51.63V10a4.3,4.3,0,0,0,.34,1.7l2.07,5.08,1.72,4.66,1,5.67Z"/><path class="cls-1" d="M320.26,6.2l2.81,6,2.69,8.68,2.69,7.34,1.5,3.18h14.51l2.69-2A3.59,3.59,0,0,0,348.27,28l1.33-2.83-3.79-9.53L340.55,4,336.64.59l-5.95,1.08a5.31,5.31,0,0,1-1.49.06l-2.8.68a5.87,5.87,0,0,0-3.72.77L320.26,5.1Z"/><path class="cls-1" d="M344.46,31.89H330a.49.49,0,0,1-.45-.29L328,28.42l-2.71-7.37-2.7-8.71L319.8,6.42a.54.54,0,0,1,0-.22V5.1a.49.49,0,0,1,.19-.39l2.42-1.93a6.24,6.24,0,0,1,4-.87l2.72-.67a.47.47,0,0,1,.17,0,5.1,5.1,0,0,0,1.35-.05L336.55.1a.54.54,0,0,1,.42.12l3.91,3.41a.45.45,0,0,1,.13.17l5.25,11.61,3.8,9.56a.48.48,0,0,1,0,.39l-1.32,2.83a4.16,4.16,0,0,1-1.28,1.57l-2.69,2A.51.51,0,0,1,344.46,31.89Zm-14.19-1h14L346.85,29a3.12,3.12,0,0,0,1-1.19l1.23-2.63-3.71-9.34-5.2-11.49-3.65-3.18-5.71,1a5.75,5.75,0,0,1-1.55.07l-2.71.67h-.17a5.51,5.51,0,0,0-3.36.66l-2.23,1.77v.75L323.52,12l2.72,8.74L328.92,28Z"/><path class="cls-1" d="M630.82,5.44l1.79,8.18.9,7.79,4.29,10.18h6.59l12.78,1.59,1.19-4.79-2.59-10-2.4-9.18L651,3.84h-4.59l-6.6-.94a6.85,6.85,0,0,0-3.47.4Z"/><path class="cls-1" d="M657.17,33.68h-.07l-12.77-1.6H637.8a.5.5,0,0,1-.46-.31L633.05,21.6a.32.32,0,0,1,0-.14l-.9-7.78-1.79-8.13a.51.51,0,0,1,.31-.58l5.5-2.14a7.49,7.49,0,0,1,3.72-.43l6.6,1H651a.49.49,0,0,1,.45.3L653.83,9l5,19.24a.49.49,0,0,1,0,.24l-1.2,4.79A.5.5,0,0,1,657.17,33.68Zm-19-2.59h6.25l12.4,1.54,1.06-4.24-5-19-2.24-5h-4.26l-6.67-.95a6.55,6.55,0,0,0-3.22.37l-5.1,2,1.7,7.76.9,7.77Z"/><path class="cls-1" d="M662.75,5l2.8,10.58,3.19,12,2,5.59h10.38l11.3-3.12-.72-8.46-4.79-11-2.8-9h-5l-8.2.89A9.16,9.16,0,0,0,669,3Z"/><path class="cls-1" d="M681.12,33.69H670.74a.51.51,0,0,1-.47-.34l-2-5.59-6-22.59a.49.49,0,0,1,.33-.6l6.24-2.09a10.07,10.07,0,0,1,2-.44l8.2-.89h5a.5.5,0,0,1,.48.35l2.79,9,4.78,10.93a.75.75,0,0,1,0,.16l.72,8.46a.49.49,0,0,1-.36.52l-11.31,3.12Zm-10-1h10l10.84-3-.68-8-4.76-10.9-2.71-8.68h-4.62L671,3a8.68,8.68,0,0,0-1.82.39l-5.8,1.94,5.87,22.1Z"/><polygon class="cls-1" points="697 3.88 699.43 14.86 702.03 24.84 704.62 29.63 706.02 32.03 716 32.03 723.99 30.63 727.78 28.04 722.59 17.66 718.6 6.68 716 1.89 708.02 1.89 697 3.88"/><path class="cls-1" d="M706,32.53a.5.5,0,0,1-.43-.25l-1.4-2.39-2.6-4.81a1.17,1.17,0,0,1-.05-.11L699,15,696.51,4a.51.51,0,0,1,.07-.38.53.53,0,0,1,.33-.22l11-2H716a.51.51,0,0,1,.44.26L719,6.44l4,11,5.17,10.32a.5.5,0,0,1-.17.64L724.27,31a.5.5,0,0,1-.2.08l-8,1.4Zm.29-1H716l7.79-1.37,3.35-2.29-5-10-4-11L715.7,2.39H708L697.6,4.28l2.32,10.47,2.58,9.91,2.56,4.73Z"/><path class="cls-1" d="M68.27,6v6.51A3.76,3.76,0,0,0,68.54,14l1.11,2.7a8.25,8.25,0,0,1,.57,2.18l.65,5.5a6,6,0,0,0,.82,2.39l3.22,5.33H92.76l.51-.52a4.63,4.63,0,0,0,1.34-3.26V25a4.09,4.09,0,0,0-.15-1.09L92.22,16.1,89.13,7.78l-1.34-4H74.11L68.88,4.83Z"/><path class="cls-1" d="M92.76,32.56H74.91a.49.49,0,0,1-.42-.24L71.26,27a6.29,6.29,0,0,1-.88-2.59l-.66-5.5a7.55,7.55,0,0,0-.53-2l-1.11-2.7a4.18,4.18,0,0,1-.31-1.6V6a.46.46,0,0,1,0-.23l.61-1.2a.5.5,0,0,1,.35-.27L74,3.27H87.79a.51.51,0,0,1,.48.34l1.34,4,3.08,8.31,2.25,7.81A4.68,4.68,0,0,1,95.11,25v3.31a5.12,5.12,0,0,1-1.48,3.61l-.52.53A.5.5,0,0,1,92.76,32.56Zm-17.56-1H92.55l.37-.37a4.11,4.11,0,0,0,1.19-2.91V25A3.41,3.41,0,0,0,94,24l-2.23-7.78L88.67,8l-1.24-3.7H74.16l-5,1-.44.89v6.39A3.39,3.39,0,0,0,69,13.77l1.12,2.7a9.25,9.25,0,0,1,.6,2.31l.65,5.5a5.34,5.34,0,0,0,.75,2.19Z"/><path class="cls-1" d="M509.09,33.11l6.37-31.3L503.49.5l-9.83,1.31-28.07,22.4a.85.85,0,0,0-.33.71l.09,5.39,9.44,2.89,8.07.93,6.44-3.67-5.38,20L473.44,76.75l-3.26-1.46L451.85,64.94l-.31-.16-13.76-5.89a2,2,0,0,0-1.89.08l-4,2a7.49,7.49,0,0,0-1.74,1.2L413.5,77.7l-17.15,16-4.77,9.22v35.5l2.67,36.65,5.35,30,8.55,5.59a4.19,4.19,0,0,0,2.33.7h10.83a2.69,2.69,0,0,0,1-.18l8.72-3.42a2.36,2.36,0,0,0,1.39-1.47l4.24-13.3,9.92-20.77,10.31-23.89,9.54-20.11L460.3,177l-6.11,33.21,8.78,2.33,8.4,3.73,12.21-7.2,20.62-14.89v-10.5l-6.63-.18-9.4-3.07-11.46,6.49L499.54,71.44Zm-62,102.05-28.86,53.7h-2.61l-3.49-15.65L408.1,127.4l2.61-19.29,11.22-14.76,11.22-10.18h7l26.73,8.56Z"/><path class="cls-1" d="M471.37,216.76a.52.52,0,0,1-.21,0L462.77,213l-8.71-2.31a.49.49,0,0,1-.36-.57l6.11-33.21,5.71-45.63-8.21,17.3L447,172.45l-9.93,20.79-4.22,13.23a2.83,2.83,0,0,1-1.67,1.79l-8.73,3.41a3.05,3.05,0,0,1-1.15.22H410.48a4.78,4.78,0,0,1-2.61-.78l-8.55-5.6a.52.52,0,0,1-.22-.33l-5.34-30-2.68-36.7V102.93a.46.46,0,0,1,.06-.23l4.77-9.22a.45.45,0,0,1,.1-.14l33.83-31.58a7.74,7.74,0,0,1,1.86-1.29l4-1.95a2.42,2.42,0,0,1,2.35-.07l13.72,5.87.37.18,18.33,10.36,2.74,1.22,10.29-25.81,5.05-18.78-5.41,3.08a.51.51,0,0,1-.3.06l-8.07-.93-9.52-2.91a.5.5,0,0,1-.36-.47l-.1-5.39a1.41,1.41,0,0,1,.53-1.11l28.06-22.4a.62.62,0,0,1,.25-.11L503.42,0h.12l12,1.31a.55.55,0,0,1,.35.2.52.52,0,0,1,.08.4l-6.37,31.3v0L500,71.56,477.41,185.94,487.92,180a.51.51,0,0,1,.4,0l9.33,3,6.56.18a.51.51,0,0,1,.49.5v10.5a.49.49,0,0,1-.21.4l-20.61,14.89-12.26,7.23A.45.45,0,0,1,471.37,216.76Zm-16.61-6.92,8.34,2.21,8.23,3.65,12-7.07,20.37-14.72v-9.75l-6.15-.17-.14,0-9.19-3L477,187.35a.5.5,0,0,1-.54,0,.49.49,0,0,1-.2-.5L499.05,71.34,508.61,33l6.25-30.75L503.49,1l-9.63,1.29-28,22.31a.42.42,0,0,0-.15.31l.1,5,9.09,2.78,7.81.9,6.3-3.59a.48.48,0,0,1,.55,0,.5.5,0,0,1,.18.52l-5.38,20L473.9,76.94a.51.51,0,0,1-.67.27L470,75.75,451.61,65.37l-.27-.13-13.75-5.89a1.49,1.49,0,0,0-1.45,0l-4,2a6.7,6.7,0,0,0-1.62,1.12L396.76,94l-4.68,9v35.38L394.75,175l5.3,29.76,8.37,5.48a3.79,3.79,0,0,0,2.06.61h10.83a2.08,2.08,0,0,0,.78-.15l8.73-3.41a1.87,1.87,0,0,0,1.09-1.16l4.24-13.3,10-20.83,10.3-23.88L466,128a.5.5,0,0,1,.95.28l-6.11,48.74ZM509.09,33.11h0ZM418.27,189.36h-2.61a.49.49,0,0,1-.48-.39l-3.5-15.65-4.08-45.87a.48.48,0,0,1,0-.12l2.61-19.28a.51.51,0,0,1,.1-.24l11.22-14.76L432.81,82.8a.51.51,0,0,1,.34-.13h7a.41.41,0,0,1,.16,0l26.73,8.56a.5.5,0,0,1,.3.27.49.49,0,0,1,0,.41l-19.79,43.42,0,0L418.71,189.1A.49.49,0,0,1,418.27,189.36Zm-2.21-1H418l28.71-53.43L466.23,92l-26.11-8.37h-6.78l-11.08,10-11.08,14.59-2.58,19.1,4.07,45.75Zm31.07-53.2h0Z"/></g></g></svg>