<svg xmlns="http://www.w3.org/2000/svg" viewBox="0 0 736.47 218.69"><defs><style>.cls-1,.cls-2,.cls-3{stroke:#000;}.cls-1{stroke-miterlimit:10;}.cls-2{stroke-linecap:round;}.cls-2,.cls-3{stroke-linejoin:round;}.cls-3{stroke-linecap:square;}</style></defs><g id="Livello_2" data-name="Livello 2"><g id="text"><path class="cls-1" d="M116.93,102.42l21.08-48a2,2,0,0,0,.17-.79V49.45a2,2,0,0,0-2-2H124.93a4.85,4.85,0,0,1-1-.1l-5.73-1.21-2,.37-2.51,5a.49.49,0,0,0-.06.13l-10,24.09a2,2,0,0,1-2.78.95l-7.12-4.09a2.19,2.19,0,0,1-.39-.29L79.17,58.54,68.69,47.36a9.9,9.9,0,0,0-2.55-.72l-8.47-1a12.27,12.27,0,0,0-4.62,1.55l-9,9.3a2.27,2.27,0,0,0-.26.35L36.25,69.7a1.55,1.55,0,0,0-.14.29L17.55,118.41,4.43,158.69a2.5,2.5,0,0,0-.07.26L.69,179.4a11.31,11.31,0,0,0-.19,2.1V195a5.64,5.64,0,0,0,.24,1.63l3.06,10a3.65,3.65,0,0,0,1.08,1.69l4.05,3.57a2,2,0,0,0,1.7.45l14.19-3a1.88,1.88,0,0,0,1-.52l45.49-48.62c1.9-2,5.79-7.1,6.59-8.1,1.32-1.62,1.45-1,1,1.06L68.51,185.41l-.08.76v3.74a2.64,2.64,0,0,1-.36,1.34L63,200a2,2,0,0,0-.16,1.63l1.7,4.84a1.92,1.92,0,0,0,1.15,1.18l5.47,3.48,5.79.75a2,2,0,0,0,1.83-.25l13.56-9.87,15.32-11.07a.91.91,0,0,1,.16-.11l15.31-8.88a2,2,0,0,0,1-1.69v-4.18a2,2,0,0,0-.71-1.51l-5-4.16a1.7,1.7,0,0,1-.34-.37l-3.74-5.23a2,2,0,0,0-2.56-.57L97.4,172.14c-1.46.84,2-7.73,2.38-9.38l5.3-25.11.06-.22,11.73-34.84A1.15,1.15,0,0,1,116.93,102.42ZM19.18,179.58a4.07,4.07,0,0,1,.11-1.05l4.53-17.9c0-.06,0,.07,0,0l9.3-32.31s0,.05,0,0l12.49-33L53.37,75c.89-2.34,2.51-6.51,4.91-5.79L64.92,73c1.4.42,4.38,2.54,5.6,3.36l8.88,8.84,2,1.79L91.87,99.06a2,2,0,0,1,.27,2.48l-6.57,10-.2.27-60.5,69.23-.23.21-.37.29c-2.87,1.41-5.09,2.84-5,.69Z"/><polygon class="cls-2" points="149.74 87.15 151.37 80.18 182.78 51.46 194.01 51.46 204.21 51.46 204.21 66.02 198.49 90.94 211.55 75.79 226.04 57.65 231.34 52.66 243.38 51.46 249.91 63.83 255.21 83.77 256.43 87.35 248.27 89.35 235.83 92.34 228.89 80.38 215.84 98.52 186.1 144.72 180.38 173.78 172 196.88 158.27 212.53 137.31 208.88 137.31 202.84 147.98 184.21 168.18 138.01 179.24 84.73 180 80.64 169.21 89.62 167.68 91 156.56 89.25 149.74 87.15"/><path class="cls-2" d="M735.38,50.24l-5-2.36a1,1,0,0,0-.42-.09h-8.4a.75.75,0,0,1-.26,0l-5.1-1.41a1,1,0,0,0-.6,0l-3.69,1.3a1,1,0,0,0-.55.47l-4.78,8.78a1.11,1.11,0,0,0-.07.16l-8.09,24.17a1,1,0,0,1-1.7.37L685.42,69.3,678,60.46l-.07-.08-9.13-8c-.38-.37-1.07-.92-1.6-.83l-7.62.53a7.16,7.16,0,0,0-1.69.51l-3,1.32a8.05,8.05,0,0,0-3.17,2.53L638.13,74.67l-9.87,13.66a8.61,8.61,0,0,0-1,1.86l-3.88,9.56-.13.36-7.46,22.15a13.83,13.83,0,0,0-.68,3.42l-1.4,21.06,0,1.1v21.47a10.68,10.68,0,0,0,.19,2l5.34,27.43c0,.14,1.48,2.77,2.33,4.28a6.19,6.19,0,0,0,1.49,1.73l5.94,4.76a1,1,0,0,0,.58.31L641,211.7a4.27,4.27,0,0,0,2.84-.55l12.86-7.67a5.12,5.12,0,0,0,1.7-1.64l12.35-19.12s.05-.09.07-.14l12.79-28.34a1,1,0,0,1,1.93.56l-1.7,14.28L682,188.91s0,.08,0,.12l-1.52,7.41a1.49,1.49,0,0,0,0,.21v4.77a1,1,0,0,1-.06.35l-2,5.42a1.1,1.1,0,0,0,0,.8l1.84,3.95a4.62,4.62,0,0,0,2.48,2.36l4.15,1.66a6.1,6.1,0,0,0,1.5.37l8.93,1a1,1,0,0,0,.84-.3l12.39-12.9,16.71-16.36a.81.81,0,0,0,.12-.14l2.24-3.13a1,1,0,0,0,.19-.6v-5.66a1,1,0,0,0-.56-.92l-11.22-5.71a2.67,2.67,0,0,0-1.36-.28l-3.22.19a3.47,3.47,0,0,0-2.28,1.07l-4.44,4.7a1,1,0,0,1-1.74-.83l1.49-13.07,4.07-29.33V134l6.19-31.79a.74.74,0,0,1,0-.14l8.35-24.84,0-.07L732,60.42l3.86-8.82A1,1,0,0,0,735.38,50.24ZM692.5,101.62l-12,23.46a.41.41,0,0,1-.05.09l-12.48,21.34a.47.47,0,0,0-.05.1l-13.2,26-.05.09-10.32,17.9a1.84,1.84,0,0,1-.58.63l-3.93,2.66c-2,.64-2.63.51-3.2-.43L635,189.73a1.89,1.89,0,0,1-.24-.65l-3.32-18.43a2,2,0,0,1,0-.34V138.13a1.88,1.88,0,0,1,.07-.53l6.63-23.12a1.63,1.63,0,0,1,.18-.43L650,93.82l.09-.14,10.51-14.89a3.92,3.92,0,0,1,4.52-1.44l7.18,2.55a1.92,1.92,0,0,1,.84.59L680,89a2.72,2.72,0,0,0,.24.24L692,99.29A1.93,1.93,0,0,1,692.5,101.62Z"/><path class="cls-2" d="M534.49,85.6l.1,5.76L544,94.21l8.07.92c1.1.13,2.25,1.94,3.13,1.25L566.57,84.1l-9.85,35.13-11.08,31.44-11.43,31.84.73,18.55-.28,6.87,4.52,3.06,9.23,1.54,12.32-6,14.9-5.8,8.83-9.92-6.84-4.7-8.27-4-8.74,2.51-5,2.35,18.93-54.43L591.5,73.2l-.32-17.51-12.75-4-4.11.07L562.9,63.2Z"/><path class="cls-2" d="M369.85,183.46a3.11,3.11,0,0,0-.88-.28l-6-.88a4,4,0,0,1-.83-.21l-8.23-3L348.72,183l-8.93,5.88,6.64-35.43,5.4-29.11,4.66-26.78,8.1-32.22,6.65-19-9.89.65a2.91,2.91,0,0,1-.59,0l-10.1-.65-8.92,20.18-5.05,10.87-1.24,2.41-2-1.42-5.86-8.67-5.7-7.52-6.94-6.55-6.84-6a2.85,2.85,0,0,0-2-.69l-5.6.32-6.27,1.13a2.13,2.13,0,0,0-1.36.88l-4.09,5.87L278,72.75c-.16.29.1-.31,0,0l-10.36,31.36L257.75,136l-7.65,30.25a3.88,3.88,0,0,0-.13.83l-1.35,23.55a4,4,0,0,0,.33,1.84l5.3,11.91a2.57,2.57,0,0,0,1.26,1.28l8.93,5.61a7.63,7.63,0,0,0,2.42.35l9.34-.08a2.34,2.34,0,0,0,1.25-.56l14.38-13a3.6,3.6,0,0,0,.67-.79l9.34-15L313.49,161l10.63-18.73,7.09-11.9-8.36,55.18L319.06,200l-2.69,6.93a5.37,5.37,0,0,0-.35,1.9V212l9.62,3.12,5.06,3,3.29-1.93,20.25-12.5,17-11.9,4.3-5.57ZM327.71,98.2l-.85,4.36-18,31.3L284.5,170.55l-8.29,15.13-7.89,7.57-1.3-.17a3.42,3.42,0,0,1-1.1-2.9l1.17-11.55L271,155.21l8.82-36.74,11.67-31.06L302.3,67.67c.15-.33,3.76-.16,4,.08l5,3.1,9.95,14.72,5.69,8.8A5.23,5.23,0,0,1,327.71,98.2Z"/><path class="cls-2" d="M291.28,8v2a5.09,5.09,0,0,0,.37,1.89L293.73,17l1.71,4.65,1,5.74,5.25,4.89h16.26l.61-3.43-3.26-12.09L311.45,8l-2.56-4L303,4.74,294.22,6l-2.94.73Z"/><path class="cls-2" d="M320.26,6.2l2.81,6,2.69,8.68,2.69,7.34,1.5,3.18h14.51l2.69-2A3.59,3.59,0,0,0,348.27,28l1.33-2.83-3.79-9.53L340.55,4,336.64.59l-5.95,1.08a5.31,5.31,0,0,1-1.49.06l-2.8.68a5.87,5.87,0,0,0-3.72.77L320.26,5.1Z"/><path class="cls-2" d="M630.82,5.44l1.79,8.18.9,7.79,4.29,10.18h6.59l12.78,1.59,1.19-4.79-2.59-10-2.4-9.18L651,3.84h-4.59l-6.6-.94a6.85,6.85,0,0,0-3.47.4Z"/><path class="cls-2" d="M662.75,5l2.8,10.58,3.19,12,2,5.59h10.38l11.3-3.12-.72-8.46-4.79-11-2.8-9h-5l-8.2.89A9.16,9.16,0,0,0,669,3Z"/><polygon class="cls-2" points="697 3.88 699.43 14.86 702.03 24.84 704.62 29.63 706.02 32.03 716 32.03 723.99 30.63 727.78 28.04 722.59 17.66 718.6 6.68 716 1.89 708.02 1.89 697 3.88"/><path class="cls-3" d="M68.27,6v6.51A3.76,3.76,0,0,0,68.54,14l1.11,2.7a8.25,8.25,0,0,1,.57,2.18l.65,5.5a6,6,0,0,0,.82,2.39l3.22,5.33H92.76l.51-.52a4.63,4.63,0,0,0,1.34-3.26V25a4,4,0,0,0-.15-1.09L92.22,16.1,89.13,7.78l-1.34-4H74.11L68.88,4.83Z"/><path class="cls-2" d="M509.09,33.11l6.37-31.3L503.49.5l-9.83,1.31-28.07,22.4a.85.85,0,0,0-.33.71l.09,5.39,9.44,2.89,8.07.93,6.44-3.67-5.38,20L473.44,76.75l-3.26-1.46L451.85,64.94l-.31-.16-13.76-5.89a2,2,0,0,0-1.89.08l-4,2a7.49,7.49,0,0,0-1.74,1.2L413.5,77.7l-17.15,16-4.77,9.22v35.5l2.67,36.65,5.35,30,8.55,5.59a4.19,4.19,0,0,0,2.33.7h10.83a2.69,2.69,0,0,0,1-.18l8.72-3.42a2.36,2.36,0,0,0,1.39-1.47l4.24-13.3,9.92-20.77,10.31-23.89,9.54-20.11L460.3,177l-6.11,33.21,8.78,2.33,8.4,3.73,12.21-7.2,20.62-14.89v-10.5l-6.63-.18-9.4-3.07-11.46,6.49L499.54,71.44Zm-62,102.05-28.86,53.7h-2.61l-3.49-15.65L408.1,127.4l2.61-19.29,11.22-14.76,11.22-10.18h7l26.73,8.56Z"/></g></g></svg>